<?xml version="1.0" encoding="UTF-8" standalone="no"?>
<!-- Created with Inkscape (http://www.inkscape.org/) -->

<svg
   width="200mm"
   height="70mm"
   viewBox="0 0 200 70"
   version="1.1"
   id="svg1"
   inkscape:version="1.4 (86a8ad7, 2024-10-11)"
   sodipodi:docname="RABA-STA.svg"
   xmlns:inkscape="http://www.inkscape.org/namespaces/inkscape"
   xmlns:sodipodi="http://sodipodi.sourceforge.net/DTD/sodipodi-0.dtd"
   xmlns="http://www.w3.org/2000/svg"
   xmlns:svg="http://www.w3.org/2000/svg">
  <sodipodi:namedview
     id="namedview1"
     pagecolor="#ffffff"
     bordercolor="#000000"
     borderopacity="0.25"
     inkscape:showpageshadow="2"
     inkscape:pageopacity="0.0"
     inkscape:pagecheckerboard="0"
     inkscape:deskcolor="#d1d1d1"
     inkscape:document-units="mm"
     inkscape:zoom="2"
     inkscape:cx="259.5"
     inkscape:cy="153"
     inkscape:window-width="1280"
     inkscape:window-height="730"
     inkscape:window-x="-6"
     inkscape:window-y="-6"
     inkscape:window-maximized="1"
     inkscape:current-layer="layer1" />
  <defs
     id="defs1">
    <rect
       x="174"
       y="141"
       width="158"
       height="15.5"
       id="rect4" />
    <rect
       x="248.19448"
       y="143.54268"
       width="115.96551"
       height="33.234019"
       id="rect5" />
  </defs>
  <g
     inkscape:label="Layer 1"
     inkscape:groupmode="layer"
     id="layer1">
    <rect
       style="fill:#ffffff;fill-opacity:0;stroke:#ff0000;stroke-width:0.0998336;stroke-dasharray:none;stroke-opacity:1"
       id="rect1"
       width="153.30486"
       height="49.816654"
       x="0.58584589"
       y="0.58567971"
       ry="9.1774626" />
    <rect
       style="fill:#ffffff;fill-opacity:0;stroke:#ff0000;stroke-width:0.0987655;stroke-dasharray:none;stroke-opacity:1"
       id="rect3"
       width="7.9012341"
       height="7.9012346"
       x="73.286728"
       y="15.049383" />
    <rect
       style="fill:#ffffff;fill-opacity:0;stroke:#ff0000;stroke-width:0.0987655;stroke-dasharray:none;stroke-opacity:1"
       id="rect3-7"
       width="7.9012341"
       height="7.9012346"
       x="131.09641"
       y="15.049383" />
    <rect
       style="fill:#ffffff;fill-opacity:0;stroke:#ff0000;stroke-width:0.0987655;stroke-dasharray:none;stroke-opacity:1"
       id="rect3-1"
       width="7.9012341"
       height="7.9012346"
       x="15.485762"
       y="15.049383" />
    <text
       xml:space="preserve"
       transform="scale(0.26458333)"
       id="text5"
       style="font-size:23.8297px;font-family:'Bauhaus 93';-inkscape-font-specification:'Bauhaus 93, Normal';font-variant-position:super;text-align:start;writing-mode:lr-tb;direction:ltr;white-space:pre;shape-inside:url(#rect5);display:inline;fill:#ffffff;fill-opacity:0;stroke:#ff0000;stroke-width:0.377953;stroke-dasharray:none;stroke-opacity:1" />
    <path
       style="font-size:5.97275px;font-family:Stencil;-inkscape-font-specification:'Stencil, Normal';font-variant-position:super;stroke:#ff0000;stroke-width:0.0947314;stroke-opacity:0"
       d="m 68.402167,39.136959 v 3.426749 q 0,0.113739 0.04375,0.163318 0.02333,0.02916 0.04375,0.03791 0.02041,0.0058 0.134154,0.035 0.139986,0.03208 0.139986,0.160401 0,0.07583 -0.07583,0.122488 -0.05541,0.035 -0.183732,0.035 h -0.09916 -1.300706 -0.07583 q -0.10499,0 -0.163318,-0.03791 -0.05541,-0.04083 -0.05541,-0.113739 0,-0.119572 0.116655,-0.157485 0.09624,-0.03208 0.110823,-0.03791 0.0175,-0.0087 0.035,-0.035 0.035,-0.04666 0.035,-0.148736 v -2.919298 q 0,-0.102073 -0.035,-0.148736 -0.0175,-0.02625 -0.035,-0.03208 -0.01458,-0.0087 -0.110823,-0.04083 -0.116655,-0.03791 -0.116655,-0.157485 0,-0.07291 0.05541,-0.110822 0.05833,-0.04083 0.163318,-0.04083 h 0.07583 z m 0.895329,2.029802 q 0.268307,0.04083 0.41121,0.09041 0.145819,0.04958 0.262474,0.134154 0.122488,0.09041 0.186648,0.215812 0.06708,0.125404 0.06708,0.265391 v 0.603691 q 0,0.09332 0.06124,0.09332 0.02333,0 0.03791,-0.01167 0.0175,-0.01458 0.04666,-0.05249 0.07291,-0.09916 0.148736,-0.09916 0.04958,0 0.09916,0.05249 0.04958,0.0525 0.04958,0.10499 0,0.09041 -0.08749,0.221645 -0.08458,0.128321 -0.212896,0.230394 -0.119572,0.09624 -0.259558,0.13707 -0.139986,0.04375 -0.329551,0.04375 -0.384963,0 -0.600775,-0.218729 -0.215812,-0.221645 -0.215812,-0.615356 v -0.489952 q 0,-0.163318 -0.0029,-0.189565 -0.01458,-0.116655 -0.08166,-0.201231 -0.08458,-0.102073 -0.24206,-0.119571 v -0.312053 q 0.157485,-0.02333 0.224562,-0.08166 0.05833,-0.0525 0.07874,-0.119571 0.02333,-0.06708 0.02333,-0.198314 V 39.87772 q 0,-0.183732 -0.07291,-0.274139 -0.06999,-0.09041 -0.256641,-0.142903 v -0.323719 h 0.07583 q 0.323718,0 0.551196,0.02333 0.3383,0.03208 0.603691,0.221645 0.382046,0.271224 0.382046,0.772842 0,0.41121 -0.256642,0.673684 -0.107906,0.110822 -0.253725,0.180816 -0.142903,0.06999 -0.437457,0.157484 z m 2.858054,-2.029802 h 1.175302 l 0.810754,3.426749 q 0.02333,0.09041 0.0525,0.160401 0.02625,0.05541 0.116655,0.09041 0.07583,0.03208 0.10499,0.06416 0.02916,0.03208 0.02916,0.08749 0,0.151652 -0.227478,0.151652 h -1.455274 q -0.08749,0 -0.139987,-0.04083 -0.05249,-0.04375 -0.05249,-0.113739 0,-0.05833 0.02333,-0.08749 0.02333,-0.02916 0.104989,-0.07291 0.05833,-0.02916 0.08166,-0.06416 0.02333,-0.035 0.02333,-0.08749 0,-0.04958 -0.0087,-0.08749 l -0.09332,-0.422875 h -0.813671 l 0.07874,-0.34705 h 0.65327 l -0.536614,-2.371018 z m -0.20123,0.740761 0.148735,0.603691 -0.516199,1.883983 q -0.02333,0.08166 -0.02333,0.151652 0,0.183732 0.172066,0.262474 l 0.102074,0.04666 q 0.09624,0.04375 0.09624,0.145819 0,0.145819 -0.212896,0.145819 h -0.740761 q -0.107906,0 -0.172066,-0.04375 -0.06124,-0.04666 -0.06124,-0.125404 0,-0.08457 0.128321,-0.139987 0.119571,-0.0525 0.174982,-0.09332 0.05833,-0.04375 0.110823,-0.116655 0.08166,-0.119572 0.134154,-0.317886 z m 4.322078,-0.740761 v 3.980862 h -1.29779 -0.07583 q -0.10499,0 -0.163317,-0.03791 -0.05541,-0.04083 -0.05541,-0.113739 0,-0.119572 0.116656,-0.157485 0.09624,-0.03208 0.110822,-0.03791 0.0175,-0.0087 0.035,-0.035 0.035,-0.04666 0.035,-0.148736 v -2.919298 q 0,-0.102073 -0.035,-0.148736 -0.0175,-0.02625 -0.035,-0.03208 -0.01458,-0.0087 -0.110822,-0.04083 -0.116656,-0.03791 -0.116656,-0.157485 0,-0.07291 0.05541,-0.110822 0.05833,-0.04083 0.163317,-0.04083 h 0.07583 z m 0.906995,1.91898 q 0.262474,0.0525 0.40246,0.102073 0.142903,0.04958 0.256642,0.125405 0.195398,0.125404 0.297471,0.332467 0.10499,0.204147 0.10499,0.457872 0,0.498701 -0.367464,0.778674 -0.189565,0.145819 -0.419959,0.207063 -0.227478,0.05833 -0.597859,0.05833 h -0.347049 v -0.30622 q 0.116655,-0.0088 0.183732,-0.03208 0.06708,-0.02625 0.119572,-0.08458 0.09624,-0.107906 0.09624,-0.335384 v -0.662018 q 0,-0.145819 -0.02625,-0.227478 -0.02333,-0.08166 -0.09041,-0.148736 -0.04958,-0.05249 -0.107906,-0.07583 -0.05833,-0.02333 -0.166234,-0.03791 v -0.303304 q 0.107906,-0.0087 0.166234,-0.02916 0.06124,-0.02041 0.110822,-0.06708 0.04666,-0.04374 0.07874,-0.113739 0.03208,-0.06999 0.035,-0.12832 v -0.160401 -0.504535 q 0,-0.07874 -0.02625,-0.163317 -0.02625,-0.08749 -0.06416,-0.13707 -0.05541,-0.06708 -0.125404,-0.09916 -0.06708,-0.03208 -0.183732,-0.04375 v -0.320802 h 0.335384 q 0.664935,0 1.014901,0.27414 0.160401,0.125405 0.244976,0.303304 0.08458,0.177899 0.08458,0.384962 0,0.204147 -0.08749,0.384963 -0.08458,0.180816 -0.239143,0.300387 -0.113739,0.09332 -0.262474,0.151652 -0.148736,0.05833 -0.419959,0.119572 z m 2.668489,-1.91898 h 1.175302 l 0.810754,3.426749 q 0.02333,0.09041 0.0525,0.160401 0.02625,0.05541 0.116655,0.09041 0.07583,0.03208 0.10499,0.06416 0.02916,0.03208 0.02916,0.08749 0,0.151652 -0.227478,0.151652 H 80.45849 q -0.08749,0 -0.139987,-0.04083 -0.0525,-0.04375 -0.0525,-0.113739 0,-0.05833 0.02333,-0.08749 0.02333,-0.02916 0.10499,-0.07291 0.05833,-0.02916 0.08166,-0.06416 0.02333,-0.035 0.02333,-0.08749 0,-0.04958 -0.0087,-0.08749 l -0.09332,-0.422875 h -0.813671 l 0.07874,-0.34705 h 0.65327 l -0.536614,-2.371018 z m -0.20123,0.740761 0.148735,0.603691 -0.516199,1.883983 q -0.02333,0.08166 -0.02333,0.151652 0,0.183732 0.172066,0.262474 l 0.102074,0.04666 q 0.09624,0.04375 0.09624,0.145819 0,0.145819 -0.212896,0.145819 H 78.67658 q -0.107906,0 -0.172066,-0.04375 -0.06124,-0.04666 -0.06124,-0.125404 0,-0.08457 0.128321,-0.139987 0.119571,-0.0525 0.174982,-0.09332 0.05833,-0.04375 0.110823,-0.116655 0.08166,-0.119572 0.134154,-0.317886 z m 3.983778,1.058647 v 0.393712 q 0,0.06708 -0.02625,0.09332 -0.02625,0.02333 -0.09332,0.02333 h -1.254044 q -0.06708,0 -0.09332,-0.02333 -0.02625,-0.02625 -0.02625,-0.09332 v -0.393712 q 0,-0.06708 0.02625,-0.09041 0.02625,-0.02625 0.09332,-0.02625 h 1.254044 q 0.06708,0 0.09332,0.02625 0.02625,0.02333 0.02625,0.09041 z m 1.583595,-1.87815 v 0.335384 q -0.180815,0.04958 -0.277056,0.154568 -0.09332,0.102074 -0.09332,0.253725 0,0.14582 0.07874,0.256642 0.07874,0.107906 0.256642,0.207063 0.122488,0.06708 0.554112,0.256642 0.262475,0.113739 0.405377,0.207063 0.145819,0.09041 0.27414,0.227478 0.344133,0.361631 0.344133,0.860332 0,0.376214 -0.186648,0.688267 -0.186649,0.312052 -0.513283,0.489952 -0.174983,0.09332 -0.384963,0.145819 -0.207063,0.05541 -0.387879,0.05541 v -0.332467 q 0.253726,-0.06125 0.364548,-0.169151 0.113739,-0.110822 0.113739,-0.297471 0,-0.195397 -0.174983,-0.344133 -0.116655,-0.09624 -0.44329,-0.239143 -0.358715,-0.157485 -0.492868,-0.224561 -0.131238,-0.06708 -0.253726,-0.157485 -0.548279,-0.390795 -0.548279,-1.041148 0,-0.332468 0.13707,-0.612441 0.137069,-0.282889 0.382046,-0.454955 0.341216,-0.239143 0.84575,-0.265391 z m 0.230394,0.335384 v -0.320802 q 0.174983,0.01167 0.303304,0.04666 0.128321,0.03208 0.364548,0.131237 0.05833,0.02333 0.09624,0.02333 0.05541,0 0.08166,-0.03791 l 0.06416,-0.08458 q 0.04666,-0.06416 0.113739,-0.06416 0.07874,0 0.113738,0.05833 0.03791,0.05541 0.03791,0.177899 v 0.962406 q 0,0.08458 -0.04958,0.139986 -0.04666,0.0525 -0.122488,0.0525 -0.05833,0 -0.107906,-0.03791 -0.02625,-0.02333 -0.04375,-0.05541 -0.01458,-0.035 -0.02916,-0.113739 -0.03208,-0.142903 -0.110822,-0.294555 -0.07874,-0.151651 -0.183732,-0.271223 -0.20998,-0.236227 -0.527866,-0.312053 z m -0.382046,3.470495 v 0.332467 q -0.239143,0 -0.527865,-0.13707 -0.107906,-0.04958 -0.148735,-0.06416 -0.04083,-0.01458 -0.07874,-0.01458 -0.05833,0 -0.08749,0.02041 -0.02916,0.0175 -0.09332,0.09333 -0.0525,0.06416 -0.113739,0.06416 -0.163317,0 -0.163317,-0.250809 v -1.061563 q 0,-0.08166 0.04666,-0.13707 0.04666,-0.05833 0.116655,-0.06124 0.06416,-0.0029 0.09916,0.03791 0.03791,0.03791 0.06416,0.13707 0.06708,0.250809 0.192482,0.469538 0.12832,0.218728 0.297471,0.37038 0.172066,0.157485 0.396627,0.201231 z M 89.3972,39.136959 v 3.426749 q 0,0.113739 0.04375,0.163318 0.02333,0.02916 0.04375,0.03791 0.02041,0.0058 0.134154,0.035 0.139986,0.03208 0.139986,0.160401 0,0.07583 -0.07583,0.122488 -0.05541,0.035 -0.186649,0.035 h -0.09624 -1.300706 -0.09624 q -0.128321,0 -0.195398,-0.03791 -0.06416,-0.04083 -0.06416,-0.119572 0,-0.128321 0.139986,-0.160401 0.113739,-0.02916 0.134154,-0.035 0.02041,-0.0087 0.04083,-0.03791 0.04375,-0.04958 0.04375,-0.163318 v -3.426749 z m 1.009068,0 v 1.192801 q 0,0.08458 -0.04958,0.13707 -0.04666,0.05249 -0.122488,0.05249 -0.07291,0 -0.122488,-0.04666 -0.04666,-0.04958 -0.06124,-0.134153 l -0.02916,-0.1779 q -0.04375,-0.271223 -0.16915,-0.469537 -0.07874,-0.122488 -0.212896,-0.20123 v -0.352883 z m -3.307177,0 h 0.767008 v 0.352883 q -0.13707,0.07874 -0.212896,0.20123 -0.125404,0.198314 -0.16915,0.469537 l -0.02916,0.1779 q -0.01458,0.08458 -0.06416,0.134153 -0.04666,0.04666 -0.119572,0.04666 -0.07583,0 -0.125404,-0.05249 -0.04666,-0.0525 -0.04666,-0.13707 z m 4.835362,0 h 1.175302 l 0.810754,3.426749 q 0.02333,0.09041 0.0525,0.160401 0.02625,0.05541 0.116655,0.09041 0.07583,0.03208 0.10499,0.06416 0.02916,0.03208 0.02916,0.08749 0,0.151652 -0.227478,0.151652 h -1.455274 q -0.08749,0 -0.139987,-0.04083 -0.05249,-0.04375 -0.05249,-0.113739 0,-0.05833 0.02333,-0.08749 0.02333,-0.02916 0.104989,-0.07291 0.05833,-0.02916 0.08166,-0.06416 0.02333,-0.035 0.02333,-0.08749 0,-0.04958 -0.0087,-0.08749 l -0.09332,-0.422875 h -0.813671 l 0.07874,-0.34705 h 0.65327 l -0.536614,-2.371018 z m -0.20123,0.740761 0.148735,0.603691 -0.516199,1.883983 q -0.02333,0.08166 -0.02333,0.151652 0,0.183732 0.172066,0.262474 l 0.102074,0.04666 q 0.09624,0.04375 0.09624,0.145819 0,0.145819 -0.212896,0.145819 h -0.740761 q -0.107906,0 -0.172066,-0.04375 -0.06124,-0.04666 -0.06124,-0.125404 0,-0.08457 0.128321,-0.139987 0.119571,-0.0525 0.174982,-0.09332 0.05833,-0.04375 0.110823,-0.116655 0.08166,-0.119572 0.134154,-0.317886 z"
       id="text6"
       transform="scale(0.96026611,1.041378)"
       aria-label="RABA-STA" />
    <rect
       style="fill:#000000;fill-opacity:0;stroke:#000000;stroke-width:0.300223;stroke-dasharray:none;stroke-opacity:1"
       id="rect6"
       width="28.360432"
       height="5.8068843"
       x="63.071819"
       y="39.866268"
       ry="0" />
    <text
       xml:space="preserve"
       transform="scale(0.26458333)"
       id="text3"
       style="fill:#000000;text-orientation:auto;stroke-width:0.37795276;stroke:#ff0000;-inkscape-font-specification:'Candara, Bold';font-family:Candara;font-size:12px;font-variant-position:super;fill-opacity:0;font-weight:bold;text-align:start;writing-mode:lr-tb;direction:ltr;white-space:pre;shape-inside:url(#rect4)" />
    <path
       style="font-weight:bold;font-size:3.57385px;font-family:Candara;-inkscape-font-specification:'Candara, Bold';font-variant-position:super;stroke:#ff0000;stroke-width:0.112562;stroke-opacity:0"
       d="m 52.627989,55.420609 h -0.516533 q -0.202425,-0.617746 -0.310618,-0.762585 -0.108193,-0.144838 -0.349009,-0.144838 -0.101213,0 -0.1937,0.0017 0,0.448476 0.01571,0.905678 h -0.485123 q 0.02269,-0.527004 0.02269,-1.188375 0,-0.635196 -0.02269,-1.083673 h 0.301893 q 0.05235,0 0.21813,-0.0052 0.167525,-0.0052 0.308873,-0.0052 0.800975,0 0.800975,0.547944 0,0.434516 -0.457201,0.60553 v 0.02618 q 0.176249,0.04886 0.308873,0.275717 0.132623,0.22511 0.357734,0.827151 z m -0.654392,-1.605441 q 0,-0.347264 -0.446731,-0.347264 -0.164034,0 -0.289677,0.02443 0.01919,0.270482 0.01919,0.704998 0.09598,0.0035 0.162289,0.0035 0.554924,0 0.554924,-0.385655 z m 2.830461,-0.666607 q -0.0157,0.586335 -0.0157,1.17267 0,1.158709 -0.949304,1.158709 -0.469417,0 -0.706743,-0.256521 -0.237326,-0.256522 -0.237326,-0.921384 0,-0.586334 -0.0157,-1.153474 h 0.493847 q -0.02269,0.589825 -0.02269,1.137769 0,0.479887 0.122153,0.657882 0.122153,0.177994 0.376929,0.177994 0.266992,0 0.385655,-0.176249 0.118663,-0.177995 0.118663,-0.663117 0,-0.532238 -0.02269,-1.134279 z m 2.214461,1.58799 q 0,0.694528 -1.136024,0.694528 -0.19719,0 -0.614255,-0.01047 0.02269,-0.527004 0.02269,-1.188375 0,-0.635196 -0.02269,-1.083673 h 0.282697 q 0.08027,0 0.268737,-0.0052 0.190209,-0.0052 0.296657,-0.0052 0.773055,0 0.773055,0.502573 0,0.387399 -0.396125,0.513043 v 0.02618 q 0.21115,0.03316 0.368204,0.165779 0.157054,0.130879 0.157054,0.39089 z m -0.471162,0.0192 q 0,-0.347264 -0.60902,-0.347264 -0.120408,0 -0.207661,0.0087 0,0.364714 0.01571,0.671842 0.05933,0.01396 0.177994,0.01396 0.322833,0 0.472907,-0.07678 0.150074,-0.07853 0.150074,-0.270482 z m -0.127388,-0.977225 q 0,-0.312363 -0.39089,-0.312363 -0.17974,0 -0.319343,0.02618 0.0192,0.176249 0.0192,0.60553 0.06631,0.0035 0.139604,0.0035 0.551434,0 0.551434,-0.322833 z m 2.734484,0.958029 q 0,0.694528 -1.136024,0.694528 -0.19719,0 -0.614255,-0.01047 0.02269,-0.527004 0.02269,-1.188375 0,-0.635196 -0.02269,-1.083673 h 0.282697 q 0.08027,0 0.268737,-0.0052 0.190209,-0.0052 0.296657,-0.0052 0.773054,0 0.773054,0.502573 0,0.387399 -0.396125,0.513043 v 0.02618 q 0.211151,0.03316 0.368205,0.165779 0.157054,0.130879 0.157054,0.39089 z m -0.471162,0.0192 q 0,-0.347264 -0.60902,-0.347264 -0.120409,0 -0.207661,0.0087 0,0.364714 0.01571,0.671842 0.05933,0.01396 0.177994,0.01396 0.322833,0 0.472907,-0.07678 0.150074,-0.07853 0.150074,-0.270482 z m -0.127388,-0.977225 q 0,-0.312363 -0.39089,-0.312363 -0.17974,0 -0.319343,0.02618 0.0192,0.176249 0.0192,0.60553 0.06631,0.0035 0.139604,0.0035 0.551434,0 0.551434,-0.322833 z m 2.483197,1.258177 -0.01396,0.38391 h -1.485032 q 0.02269,-0.527004 0.02269,-1.188375 0,-0.635196 -0.02269,-1.083673 h 1.416975 l -0.01919,0.382165 q -0.523513,-0.02792 -0.949304,-0.02792 0.01745,0.242561 0.01745,0.572375 0.364714,0 0.780035,-0.0192 v 0.364714 q -0.40834,-0.01745 -0.780035,-0.01745 0,0.354244 0.01396,0.663117 0.478142,0 1.019105,-0.02967 z m 2.224931,0.38391 h -0.516533 q -0.202425,-0.617746 -0.310618,-0.762585 -0.108192,-0.144838 -0.349008,-0.144838 -0.101213,0 -0.1937,0.0017 0,0.448476 0.01571,0.905678 h -0.485122 q 0.02269,-0.527004 0.02269,-1.188375 0,-0.635196 -0.02269,-1.083673 h 0.301893 q 0.05235,0 0.21813,-0.0052 0.167524,-0.0052 0.308873,-0.0052 0.800975,0 0.800975,0.547944 0,0.434516 -0.457202,0.60553 v 0.02618 q 0.17625,0.04886 0.308873,0.275717 0.132624,0.22511 0.357734,0.827151 z M 62.60964,53.815168 q 0,-0.347264 -0.446732,-0.347264 -0.164034,0 -0.289677,0.02443 0.0192,0.270482 0.0192,0.704998 0.09598,0.0035 0.162289,0.0035 0.554924,0 0.554924,-0.385655 z m 3.202155,0.98595 q 0,0.682312 -0.980715,0.682312 -0.333304,0 -0.619491,-0.08027 l 0.08551,-0.389145 q 0.282698,0.09772 0.533984,0.09772 0.279207,0 0.40136,-0.0541 0.122153,-0.0541 0.122153,-0.181484 0,-0.132624 -0.115173,-0.223366 -0.09947,-0.08027 -0.403105,-0.209405 -0.275717,-0.118663 -0.410085,-0.258267 -0.16927,-0.176249 -0.16927,-0.434515 0,-0.300148 0.221621,-0.469417 0.223366,-0.16927 0.640431,-0.16927 0.342029,0 0.57412,0.05759 l -0.06457,0.3874 q -0.235581,-0.08551 -0.509553,-0.08551 -0.41183,0 -0.41183,0.219876 0,0.116918 0.09598,0.19021 0.08376,0.06282 0.364714,0.176249 0.298403,0.120408 0.446732,0.265247 0.19719,0.1937 0.19719,0.478142 z m 1.975389,-1.652557 -0.01221,0.375185 q -0.349009,-0.02618 -0.657881,-0.02618 -0.0035,0.329813 -0.0035,0.734664 0,0.628215 0.0192,1.188375 h -0.488612 q 0.02268,-0.554924 0.02268,-1.188375 0,-0.39787 -0.007,-0.734664 -0.246051,0 -0.675332,0.02792 l 0.01396,-0.37693 z m 2.128953,2.272048 h -0.516533 q -0.202425,-0.617746 -0.310617,-0.762585 -0.108193,-0.144838 -0.349009,-0.144838 -0.101213,0 -0.1937,0.0017 0,0.448476 0.0157,0.905678 h -0.485122 q 0.02269,-0.527004 0.02269,-1.188375 0,-0.635196 -0.02269,-1.083673 h 0.301893 q 0.05235,0 0.21813,-0.0052 0.167524,-0.0052 0.308873,-0.0052 0.800975,0 0.800975,0.547944 0,0.434516 -0.457201,0.60553 v 0.02618 q 0.176249,0.04886 0.308872,0.275717 0.132624,0.22511 0.357734,0.827151 z m -0.654391,-1.605441 q 0,-0.347264 -0.446731,-0.347264 -0.164034,0 -0.289678,0.02443 0.0192,0.270482 0.0192,0.704998 0.09598,0.0035 0.162289,0.0035 0.554924,0 0.554924,-0.385655 z m 2.924694,1.605441 h -0.558414 q 0,-0.115173 -0.158799,-0.652647 h -0.80621 q -0.164034,0.528748 -0.164034,0.652647 h -0.525259 q 0,-0.06806 0.406596,-1.116829 0.40834,-1.048771 0.40834,-1.155219 h 0.659626 q 0,0.09947 0.368205,1.139514 0.369949,1.038301 0.369949,1.132534 z m -0.80621,-0.98595 q -0.298403,-0.900443 -0.298403,-0.973735 h -0.02792 q 0,0.06806 -0.308872,0.973735 z m 2.734483,-0.691038 q 0,0.417066 -0.310618,0.616001 -0.308872,0.198935 -0.759094,0.198935 -0.08202,0 -0.116918,-0.0035 0,0.328068 0.0192,0.865542 h -0.490358 q 0.02269,-0.504318 0.02269,-1.188375 0,-0.628216 -0.02269,-1.083673 h 0.303638 q 0.06457,0 0.247796,-0.0052 0.18323,-0.0052 0.317598,-0.0052 0.331559,0 0.560159,0.150074 0.228601,0.150074 0.228601,0.455456 z m -0.450221,0.09598 q 0,-0.37344 -0.495593,-0.37344 -0.123898,0 -0.261756,0.02618 0.01919,0.329813 0.01919,0.746879 0.04363,0.0035 0.101213,0.0035 0.636941,0 0.636941,-0.403105 z m 3.036377,0.961519 q 0,0.682312 -0.980715,0.682312 -0.333303,0 -0.61949,-0.08027 l 0.08551,-0.389145 q 0.282697,0.09772 0.533983,0.09772 0.279207,0 0.40136,-0.0541 0.122153,-0.0541 0.122153,-0.181484 0,-0.132624 -0.115173,-0.223366 -0.09947,-0.08027 -0.403105,-0.209405 -0.275717,-0.118663 -0.410085,-0.258267 -0.169269,-0.176249 -0.169269,-0.434515 0,-0.300148 0.22162,-0.469417 0.223366,-0.16927 0.640431,-0.16927 0.342029,0 0.57412,0.05759 l -0.06457,0.3874 q -0.235581,-0.08551 -0.509553,-0.08551 -0.41183,0 -0.41183,0.219876 0,0.116918 0.09598,0.19021 0.08376,0.06282 0.364714,0.176249 0.298402,0.120408 0.446731,0.265247 0.19719,0.1937 0.19719,0.478142 z m 1.97539,-1.652557 -0.01221,0.375185 q -0.349009,-0.02618 -0.657882,-0.02618 -0.0035,0.329813 -0.0035,0.734664 0,0.628215 0.01919,1.188375 h -0.488612 q 0.02269,-0.554924 0.02269,-1.188375 0,-0.39787 -0.007,-0.734664 -0.246051,0 -0.675332,0.02792 l 0.01396,-0.37693 z m 2.198755,2.272048 H 80.3166 q 0,-0.115173 -0.158799,-0.652647 H 79.35159 q -0.164034,0.528748 -0.164034,0.652647 h -0.525258 q 0,-0.06806 0.406595,-1.116829 0.408341,-1.048771 0.408341,-1.155219 h 0.659626 q 0,0.09947 0.368204,1.139514 0.36995,1.038301 0.36995,1.132534 z m -0.80621,-0.98595 q -0.298403,-0.900443 -0.298403,-0.973735 h -0.02792 q 0,0.06806 -0.308872,0.973735 z m 2.949123,0.98595 h -0.431026 q 0,-0.07155 -0.479887,-0.755604 -0.502572,-0.720704 -0.572374,-0.98595 h -0.02792 q 0.04363,0.382164 0.04363,0.691037 0,0.431026 0.02443,1.050517 h -0.429281 q 0.02618,-0.540964 0.02618,-1.188375 0,-0.636941 -0.02618,-1.083673 h 0.518278 q 0,0.09249 0.431026,0.738154 0.458947,0.685802 0.527003,0.930108 h 0.02618 q -0.04188,-0.389144 -0.04188,-0.698017 0,-0.472907 -0.02443,-0.970245 h 0.436261 q -0.02443,0.432771 -0.02443,1.083673 0,0.656136 0.02443,1.188375 z m 2.422122,-1.214551 q 0,0.495592 -0.317598,0.865542 -0.317598,0.369949 -0.889972,0.369949 -0.258267,0 -0.711978,-0.02094 0.02269,-0.527004 0.02269,-1.188375 0,-0.635196 -0.02269,-1.083673 h 0.305383 q 0.07504,0 0.223365,-0.0052 0.148329,-0.0052 0.1937,-0.0052 0.629961,0 0.912658,0.314108 0.284442,0.314108 0.284442,0.753859 z m -0.476397,0.07504 q 0,-0.335049 -0.195445,-0.563649 -0.195445,-0.230346 -0.596805,-0.230346 -0.07504,0 -0.205915,0.01571 0.01745,0.349009 0.01745,0.729429 0,0.417065 0.01745,0.82715 0.113428,0.02269 0.226856,0.02269 0.375184,0 0.554924,-0.232091 0.181484,-0.233836 0.181484,-0.568884 z"
       id="text7"
       transform="scale(1.1323739,0.88310053)"
       aria-label="RUBBER STRAP STAND" />
  </g>
</svg>
