<?xml version="1.0" encoding="UTF-8" standalone="no"?>
<!-- Created with Inkscape (http://www.inkscape.org/) -->

<svg
   width="21cm"
   height="6cm"
   viewBox="0 0 210 59.999997"
   version="1.1"
   id="svg1"
   inkscape:version="1.4 (86a8ad7, 2024-10-11)"
   sodipodi:docname="RABA-STA.svg"
   xmlns:inkscape="http://www.inkscape.org/namespaces/inkscape"
   xmlns:sodipodi="http://sodipodi.sourceforge.net/DTD/sodipodi-0.dtd"
   xmlns="http://www.w3.org/2000/svg"
   xmlns:svg="http://www.w3.org/2000/svg">
  <sodipodi:namedview
     id="namedview1"
     pagecolor="#ffffff"
     bordercolor="#000000"
     borderopacity="0.25"
     inkscape:showpageshadow="2"
     inkscape:pageopacity="0.0"
     inkscape:pagecheckerboard="0"
     inkscape:deskcolor="#d1d1d1"
     inkscape:document-units="mm"
     inkscape:zoom="0.59750525"
     inkscape:cx="503.76126"
     inkscape:cy="36.81976"
     inkscape:window-width="1280"
     inkscape:window-height="730"
     inkscape:window-x="-6"
     inkscape:window-y="-6"
     inkscape:window-maximized="1"
     inkscape:current-layer="layer1" />
  <defs
     id="defs1">
    <rect
       x="245.27766"
       y="131.47768"
       width="201.0835"
       height="40.879612"
       id="rect5" />
    <inkscape:path-effect
       effect="fillet_chamfer"
       id="path-effect3"
       is_visible="true"
       lpeversion="1"
       nodesatellites_param="F,0,0,1,0,0,0,1 @ F,0,0,1,0,0,0,1 @ F,0,0,1,0,0,0,1 @ F,0,0,1,0,0,0,1 @ F,0,0,1,0,0,0,1 @ F,0,0,1,0,0,0,1 @ F,0,0,1,0,0,0,1 @ F,0,0,1,0,0,0,1"
       radius="0"
       unit="px"
       method="auto"
       mode="F"
       chamfer_steps="1"
       flexible="false"
       use_knot_distance="true"
       apply_no_radius="true"
       apply_with_radius="true"
       only_selected="false"
       hide_knots="false" />
    <inkscape:path-effect
       effect="fillet_chamfer"
       id="path-effect2"
       is_visible="true"
       lpeversion="1"
       nodesatellites_param="F,0,0,1,0,0,0,1 @ F,0,0,1,0,0,0,1 @ F,0,0,1,0,0,0,1 @ F,0,0,1,0,0,0,1"
       radius="0"
       unit="px"
       method="auto"
       mode="F"
       chamfer_steps="1"
       flexible="false"
       use_knot_distance="true"
       apply_no_radius="true"
       apply_with_radius="true"
       only_selected="false"
       hide_knots="false" />
  </defs>
  <g
     inkscape:label="Layer 1"
     inkscape:groupmode="layer"
     id="layer1">
    <path
       style="fill:#000000;fill-opacity:0;stroke:#ff0000;stroke-width:0.103"
       id="rect1"
       width="200"
       height="50"
       x="0.66175318"
       y="0.56626707"
       sodipodi:type="rect"
       inkscape:path-effect="#path-effect3"
       d="M 7.0784197,0.56626707 H 194.24509 c 3.55483,0 6.41666,2.86183323 6.41666,6.41666653 V 44.149601 c 0,3.554833 -2.86183,6.416666 -6.41666,6.416666 H 7.0784197 c -3.5548333,0 -6.41666652,-2.861833 -6.41666652,-6.416666 V 6.9829336 c 0,-3.5548333 2.86183322,-6.41666653 6.41666652,-6.41666653 z"
       ry="6.4166665"
       transform="translate(-0.05535168)" />
    <rect
       style="fill:#000000;fill-opacity:0;stroke:#ff0000;stroke-width:0.100481"
       id="rect3"
       width="8.25"
       height="8.25"
       x="21.710453"
       y="14.550241"
       rx="0" />
    <rect
       style="fill:#000000;fill-opacity:0;stroke:#ff0000;stroke-width:0.103"
       id="rect3-5"
       width="8.25"
       height="8.25"
       x="72.555496"
       y="14.5515"
       rx="0" />
    <rect
       style="fill:#000000;fill-opacity:0;stroke:#ff0000;stroke-width:0.103"
       id="rect3-5-1"
       width="8.25"
       height="8.25"
       x="121.80276"
       y="14.5515"
       rx="0" />
    <rect
       style="fill:#000000;fill-opacity:0;stroke:#ff0000;stroke-width:0.103"
       id="rect3-8"
       width="8"
       height="8"
       x="171.54701"
       y="14.5515"
       rx="0" />
    <path
       style="font-size:29.3333px;font-family:Stencil;-inkscape-font-specification:'Stencil, Normal';font-variant-position:super;white-space:pre;stroke:#000000;stroke-width:0.0963872;stroke-opacity:0"
       d="m 87.089741,38.719987 v 4.233081 q 0,0.140505 0.05237,0.201746 0.02792,0.03603 0.05237,0.04684 0.02443,0.0071 0.160581,0.04321 0.16756,0.03963 0.16756,0.198146 0,0.09367 -0.09076,0.151307 -0.06632,0.04321 -0.219922,0.04321 h -0.11869 -1.556927 -0.09076 q -0.125673,0 -0.195488,-0.04683 -0.06633,-0.05043 -0.06633,-0.140505 0,-0.147713 0.139636,-0.194543 0.115197,-0.03963 0.132653,-0.04683 0.02093,-0.01073 0.04188,-0.04322 0.04189,-0.05764 0.04189,-0.183735 v -3.606222 q 0,-0.126092 -0.04189,-0.183735 -0.02093,-0.03242 -0.04188,-0.03963 -0.01745,-0.01073 -0.132653,-0.05043 -0.139636,-0.04684 -0.139636,-0.194544 0,-0.09006 0.06633,-0.136895 0.06981,-0.05043 0.195488,-0.05043 h 0.09076 z m 1.071695,2.507425 q 0.321159,0.05043 0.49221,0.111677 0.174545,0.06125 0.31418,0.165721 0.146617,0.111678 0.223415,0.266595 0.08029,0.154919 0.08029,0.327837 v 0.745743 q 0,0.115271 0.07331,0.115271 0.02793,0 0.04538,-0.01448 0.02092,-0.01801 0.05586,-0.06484 0.08728,-0.12248 0.178036,-0.12248 0.05934,0 0.118688,0.06484 0.05934,0.06484 0.05934,0.129705 0,0.111678 -0.104724,0.273798 -0.101227,0.158515 -0.254833,0.284609 -0.143124,0.118889 -0.310686,0.169316 -0.167561,0.05404 -0.394468,0.05404 -0.460795,0 -0.719118,-0.270198 -0.258325,-0.273799 -0.258325,-0.760153 v -0.60524 q 0,-0.201746 -0.0035,-0.23417 -0.01744,-0.144101 -0.09774,-0.248583 -0.101238,-0.126092 -0.289742,-0.147712 v -0.385469 q 0.188506,-0.02882 0.268798,-0.100873 0.06981,-0.06484 0.09426,-0.147713 0.02793,-0.08285 0.02793,-0.244979 v -0.954693 q 0,-0.226967 -0.08727,-0.338647 -0.08379,-0.111679 -0.307197,-0.176529 v -0.399809 h 0.09076 q 0.387487,0 0.659774,0.02884 0.40494,0.03963 0.72261,0.273798 0.457304,0.335045 0.457304,0.954694 0,0.50797 -0.307197,0.832205 -0.12916,0.136895 -0.303706,0.223365 -0.171051,0.08646 -0.523628,0.194541 z m 3.421048,-2.507425 h 1.40682 l 0.970459,4.233081 q 0.02793,0.111678 0.06283,0.198145 0.03142,0.06843 0.139637,0.111677 0.09076,0.03963 0.125672,0.07926 0.03491,0.03963 0.03491,0.108085 0,0.187337 -0.272286,0.187337 h -1.741943 q -0.104724,0 -0.167562,-0.05043 -0.06284,-0.05404 -0.06284,-0.140506 0,-0.07205 0.02793,-0.108084 0.02793,-0.03602 0.125673,-0.09006 0.06981,-0.03602 0.09775,-0.07927 0.02793,-0.04321 0.02793,-0.108084 0,-0.06125 -0.0105,-0.108084 l -0.111707,-0.52238 h -0.973953 l 0.09426,-0.428714 h 0.781954 l -0.642319,-2.928931 z m -0.240869,0.915067 0.178034,0.745742 -0.617885,2.327293 q -0.02793,0.100873 -0.02793,0.187336 0,0.226964 0.20596,0.324235 l 0.122181,0.05764 q 0.115199,0.05404 0.115199,0.180129 0,0.180132 -0.254833,0.180132 h -0.88668 q -0.129163,0 -0.205963,-0.05404 -0.07331,-0.05764 -0.07331,-0.15492 0,-0.104479 0.153597,-0.172927 0.143126,-0.06484 0.209454,-0.115272 0.06981,-0.05404 0.132653,-0.1441 0.09774,-0.147712 0.160579,-0.392685 z m 5.173461,-0.915067 v 4.917577 H 94.96164 94.87088 q -0.125673,0 -0.195488,-0.04683 -0.06632,-0.05043 -0.06632,-0.140505 0,-0.147714 0.139635,-0.194543 0.115197,-0.03963 0.132652,-0.04683 0.02093,-0.01073 0.04188,-0.04322 0.04189,-0.05764 0.04189,-0.183736 v -3.60622 q 0,-0.126093 -0.04189,-0.183735 -0.02093,-0.03242 -0.04188,-0.03963 -0.01745,-0.01073 -0.132652,-0.05043 -0.139635,-0.04683 -0.139635,-0.194543 0,-0.09006 0.06632,-0.136895 0.06981,-0.05043 0.195488,-0.05043 h 0.09076 z m 1.085661,2.370525 q 0.314178,0.06484 0.48174,0.126092 0.171051,0.06125 0.307195,0.15492 0.233889,0.154921 0.35607,0.4107 0.12567,0.252185 0.12567,0.56561 0,0.616051 -0.439849,0.961901 -0.226905,0.18013 -0.502685,0.255787 -0.272289,0.07205 -0.715628,0.07205 h -0.415413 v -0.378276 q 0.139636,-0.01073 0.219925,-0.03963 0.08029,-0.03242 0.143125,-0.104467 0.1152,-0.1333 0.1152,-0.414304 v -0.817791 q 0,-0.180133 -0.03141,-0.281007 -0.02793,-0.100873 -0.10821,-0.183735 -0.05935,-0.06484 -0.129162,-0.09367 -0.06981,-0.02882 -0.198978,-0.04683 V 40.90319 q 0.129162,-0.01073 0.198978,-0.03603 0.07331,-0.02522 0.132653,-0.08285 0.05586,-0.05404 0.09426,-0.140507 0.0384,-0.08646 0.04189,-0.158514 v -0.198153 -0.623252 q 0,-0.09727 -0.03141,-0.201746 -0.03142,-0.108085 -0.0768,-0.169317 -0.06632,-0.08287 -0.150108,-0.122498 -0.08029,-0.03963 -0.219924,-0.05404 v -0.39629 h 0.401449 q 0.795917,0 1.214821,0.338647 0.191998,0.154919 0.293234,0.374672 0.101228,0.219761 0.101228,0.475548 0,0.252182 -0.104724,0.475546 -0.101228,0.22336 -0.286254,0.371069 -0.136142,0.115272 -0.314176,0.187336 -0.178033,0.07205 -0.502684,0.147714 z m 3.194143,-2.370525 h 1.40682 l 0.97047,4.233081 q 0.0279,0.111678 0.0629,0.198145 0.0314,0.06843 0.13963,0.111677 0.0908,0.03963 0.12568,0.07926 0.035,0.03963 0.035,0.108085 0,0.187337 -0.2723,0.187337 h -1.74195 q -0.10479,0 -0.16756,-0.05043 -0.0629,-0.05404 -0.0629,-0.140506 0,-0.07205 0.0279,-0.108084 0.0279,-0.03602 0.12567,-0.09006 0.0698,-0.03602 0.0978,-0.07927 0.0279,-0.04321 0.0279,-0.108084 0,-0.06125 -0.0108,-0.108084 l -0.11175,-0.522381 h -0.97395 l 0.0943,-0.428714 h 0.78195 l -0.64196,-2.928932 z m -0.24087,0.915067 0.17803,0.745742 -0.61789,2.327293 q -0.0279,0.100873 -0.0279,0.187336 0,0.226964 0.20596,0.324235 l 0.12218,0.05764 q 0.1152,0.05404 0.1152,0.180129 0,0.180132 -0.25483,0.180132 h -0.886679 q -0.12916,0 -0.20596,-0.05404 -0.0733,-0.05764 -0.0733,-0.15492 0,-0.104479 0.1536,-0.172927 0.14313,-0.06484 0.20945,-0.115272 0.0698,-0.05404 0.13265,-0.1441 0.0978,-0.147712 0.16058,-0.392685 z m 4.76854,1.307751 v 0.486353 q 0,0.08287 -0.0314,0.115295 -0.0314,0.02882 -0.11171,0.02882 h -1.50108 q -0.0803,0 -0.11172,-0.02882 -0.0314,-0.03242 -0.0314,-0.115295 v -0.486353 q 0,-0.08287 0.0314,-0.111677 0.0314,-0.03242 0.11172,-0.03242 h 1.50108 q 0.0803,0 0.11171,0.03242 0.0314,0.02882 0.0314,0.111677 z m 1.89555,-2.320089 v 0.414299 q -0.21643,0.06125 -0.33163,0.190943 -0.11171,0.126093 -0.11171,0.313427 0,0.180132 0.0943,0.317032 0.0943,0.133299 0.3072,0.255786 0.14661,0.08285 0.66327,0.31703 0.31418,0.140507 0.48522,0.255785 0.17455,0.111678 0.32815,0.281003 0.41193,0.446727 0.41193,1.062773 0,0.464739 -0.22342,0.850221 -0.22342,0.38548 -0.6144,0.60524 -0.20946,0.115297 -0.46079,0.18013 -0.24786,0.06846 -0.46429,0.06846 v -0.410698 q 0.30371,-0.07566 0.43636,-0.208951 0.13614,-0.136895 0.13614,-0.367469 0,-0.241375 -0.20946,-0.425109 -0.13962,-0.118889 -0.5306,-0.295415 -0.42939,-0.194543 -0.58997,-0.2774 -0.15709,-0.08287 -0.3037,-0.194544 -0.65629,-0.482751 -0.65629,-1.286134 0,-0.410698 0.16407,-0.75655 0.16407,-0.349454 0.45732,-0.562011 0.40842,-0.295413 1.01235,-0.327839 z m 0.27579,0.414299 V 38.64073 q 0.20945,0.01449 0.36305,0.05764 0.15361,0.03963 0.43635,0.16211 0.0698,0.02882 0.11521,0.02882 0.0664,0 0.0978,-0.04683 l 0.0769,-0.104479 q 0.0559,-0.07926 0.13614,-0.07926 0.0943,0 0.13615,0.07205 0.0454,0.06846 0.0454,0.219758 v 1.188865 q 0,0.104479 -0.0593,0.172927 -0.0559,0.06484 -0.14661,0.06484 -0.0698,0 -0.12916,-0.04683 -0.0314,-0.02882 -0.0524,-0.06845 -0.0174,-0.04322 -0.035,-0.140507 -0.0384,-0.17653 -0.13267,-0.363866 -0.0943,-0.187335 -0.21991,-0.335043 -0.25135,-0.291811 -0.63185,-0.385483 z m -0.45732,4.287122 v 0.410698 q -0.28624,0 -0.63184,-0.169316 -0.12916,-0.06125 -0.17804,-0.07926 -0.0489,-0.01801 -0.0943,-0.01801 -0.0698,0 -0.10479,0.02522 -0.035,0.0216 -0.1117,0.115296 -0.0629,0.07926 -0.13614,0.07926 -0.19549,0 -0.19549,-0.309826 v -1.311354 q 0,-0.100873 0.0559,-0.169316 0.0559,-0.07205 0.13964,-0.07566 0.0769,-0.0036 0.11869,0.04683 0.0454,0.04683 0.0769,0.169318 0.0803,0.309823 0.2304,0.58002 0.1536,0.270195 0.35607,0.457534 0.20595,0.19454 0.47475,0.248581 z m 5.18398,-4.60415 v 4.233081 q 0,0.140505 0.0524,0.201746 0.0279,0.03603 0.0524,0.04684 0.0245,0.0071 0.16058,0.04321 0.16757,0.03963 0.16757,0.198146 0,0.09367 -0.0908,0.151307 -0.0664,0.04321 -0.22341,0.04321 h -0.1152 -1.55694 -0.1152 q -0.1536,0 -0.23389,-0.04683 -0.0769,-0.05043 -0.0769,-0.147712 0,-0.158515 0.16755,-0.198145 0.13615,-0.03603 0.16058,-0.04322 0.0245,-0.01073 0.0489,-0.04683 0.0524,-0.06125 0.0524,-0.201748 v -4.23308 z m 1.20785,0 v 1.473474 q 0,0.104478 -0.0593,0.169317 -0.0559,0.06484 -0.14662,0.06484 -0.0874,0 -0.1466,-0.05764 -0.0559,-0.06125 -0.0733,-0.165723 l -0.035,-0.219757 q -0.0524,-0.335044 -0.20247,-0.580022 -0.0943,-0.151307 -0.25484,-0.248582 v -0.435917 z m -3.95868,0 h 0.91812 v 0.435917 q -0.16408,0.09727 -0.25485,0.248582 -0.1501,0.244978 -0.20247,0.580021 l -0.035,0.219758 q -0.0174,0.104467 -0.0769,0.165722 -0.0559,0.05764 -0.14313,0.05764 -0.0908,0 -0.15011,-0.06484 -0.0559,-0.06484 -0.0559,-0.169316 z m 5.78789,0 h 1.40681 l 0.97046,4.233081 q 0.0279,0.111678 0.0629,0.198145 0.0314,0.06843 0.13963,0.111677 0.0908,0.03963 0.12568,0.07926 0.035,0.03963 0.035,0.108085 0,0.187337 -0.27229,0.187337 h -1.74195 q -0.10479,0 -0.16756,-0.05043 -0.0629,-0.05404 -0.0629,-0.140506 0,-0.07205 0.0279,-0.108084 0.0279,-0.03602 0.12566,-0.09006 0.0698,-0.03602 0.0979,-0.07927 0.0279,-0.04321 0.0279,-0.108084 0,-0.06125 -0.0108,-0.108084 l -0.11172,-0.52238 h -0.97395 l 0.0943,-0.428714 h 0.78194 l -0.64231,-2.928931 z m -0.24087,0.915067 0.17803,0.745742 -0.61789,2.327293 q -0.0279,0.100873 -0.0279,0.187336 0,0.226964 0.20596,0.324235 l 0.12218,0.05764 q 0.11519,0.05404 0.11519,0.180129 0,0.180132 -0.25482,0.180132 h -0.88669 q -0.12917,0 -0.20597,-0.05404 -0.0733,-0.05764 -0.0733,-0.15492 0,-0.104479 0.1536,-0.172927 0.14312,-0.06484 0.20946,-0.115272 0.0698,-0.05404 0.13264,-0.1441 0.0978,-0.147712 0.16058,-0.392685 z"
       id="text5"
       aria-label="RABA-STA" />
    <rect
       style="fill:#000000;fill-opacity:0;stroke:#000000;stroke-width:0.364294;stroke-dasharray:none;stroke-opacity:1"
       id="rect6"
       width="34.345242"
       height="7.5048671"
       x="84.320129"
       y="37.316559" />
    <path
       d="m 83.826416,48.186738 h -0.35943 l -0.236198,-0.446051 q -0.06333,-0.118642 -0.210523,-0.193935 -0.147196,-0.07529 -0.338891,-0.07529 h -0.614456 v 0.715278 h -0.332045 v -1.672405 h 1.110811 q 0.290968,0 0.475818,0.03764 0.18485,0.03764 0.301237,0.158571 0.116388,0.120924 0.116388,0.27265 0,0.1734 -0.150618,0.289762 -0.150619,0.116361 -0.41249,0.151726 v 0.0046 q 0.261871,0.0559 0.398797,0.302311 z m -1.759498,-0.913777 h 0.741112 q 0.309795,0 0.448432,-0.06503 0.140349,-0.06503 0.140349,-0.224737 0,-0.285199 -0.537434,-0.285199 h -0.792459 z m 3.183528,0.942297 q -0.436451,0 -0.653821,-0.112939 -0.215659,-0.112938 -0.273852,-0.265805 -0.05648,-0.152866 -0.05648,-0.354787 v -0.967394 h 0.332046 v 0.963971 q 0,0.32969 0.166023,0.433503 0.166022,0.103812 0.486086,0.103812 0.320065,0 0.486087,-0.103812 0.166023,-0.103813 0.166023,-0.433503 v -0.963971 h 0.333757 v 0.967394 q 0,0.303451 -0.109541,0.447192 -0.107827,0.143739 -0.326911,0.21561 -0.219081,0.07073 -0.549416,0.07073 z m 3.423148,-0.514499 q 0,0.235005 -0.23962,0.360492 -0.239621,0.125487 -0.696611,0.125487 h -0.939654 v -1.672405 h 0.893441 q 0.400509,0 0.629859,0.114079 0.229352,0.114079 0.229352,0.312577 0,0.241849 -0.361143,0.358211 0.243044,0.04107 0.362854,0.151725 0.121521,0.109516 0.121522,0.249834 z m -1.54384,-0.485978 h 0.557973 q 0.275563,0 0.405643,-0.05818 0.13008,-0.05932 0.13008,-0.196217 0,-0.123205 -0.126656,-0.184809 -0.126657,-0.06274 -0.439875,-0.06274 h -0.527165 z m 0,0.773459 h 0.604186 q 0.595628,0 0.595628,-0.287481 0,-0.149443 -0.138639,-0.217892 -0.136925,-0.06959 -0.499779,-0.06959 h -0.561396 z m 3.88185,-0.287481 q 0,0.235005 -0.239621,0.360492 -0.23962,0.125487 -0.696611,0.125487 h -0.939654 v -1.672405 h 0.893442 q 0.400509,0 0.62986,0.114079 0.22935,0.114079 0.22935,0.312577 0,0.241849 -0.361142,0.358211 0.243044,0.04107 0.362854,0.151725 0.121521,0.109516 0.121522,0.249834 z m -1.54384,-0.485978 h 0.557974 q 0.275562,0 0.405642,-0.05818 0.13008,-0.05932 0.13008,-0.196217 0,-0.123205 -0.126656,-0.184809 -0.126657,-0.06274 -0.439875,-0.06274 h -0.527165 z m 0,0.773459 h 0.604186 q 0.595628,0 0.595628,-0.287481 0,-0.149443 -0.138638,-0.217892 -0.136926,-0.06959 -0.49978,-0.06959 h -0.561396 z m 3.876715,0.198498 h -1.870751 v -1.672405 h 1.812557 v 0.198498 h -1.480511 v 0.511076 h 1.384663 v 0.198498 h -1.384663 v 0.565835 h 1.538705 z m 2.558803,0 h -0.359431 l -0.236197,-0.446051 q -0.06333,-0.118642 -0.210523,-0.193935 -0.147196,-0.07529 -0.338893,-0.07529 h -0.614454 v 0.715278 h -0.332045 v -1.672405 h 1.110811 q 0.290968,0 0.475817,0.03764 0.184851,0.03764 0.301238,0.158571 0.116388,0.120924 0.116388,0.27265 0,0.1734 -0.150619,0.289762 -0.150618,0.116361 -0.412489,0.151726 v 0.0046 q 0.261871,0.0559 0.398796,0.302311 z m -1.759498,-0.913777 h 0.741112 q 0.309795,0 0.448431,-0.06503 0.14035,-0.06503 0.14035,-0.224737 0,-0.285199 -0.537434,-0.285199 h -0.792459 z m 1.918674,0.913777 z m 2.158295,0.02852 q -0.530588,0 -0.79417,-0.15857 -0.261871,-0.158571 -0.275564,-0.407264 h 0.320065 q 0.02567,0.18709 0.232774,0.277213 0.208812,0.08898 0.503202,0.08898 0.278988,0 0.448433,-0.07643 0.171157,-0.07643 0.171157,-0.207625 0,-0.138036 -0.176292,-0.200779 -0.176292,-0.06274 -0.607608,-0.123207 -0.429605,-0.06161 -0.617879,-0.169978 -0.186561,-0.108376 -0.186561,-0.288621 0,-0.203062 0.243044,-0.333112 0.244754,-0.130051 0.648686,-0.130051 0.42447,0 0.68463,0.131191 0.260158,0.131192 0.275563,0.370759 h -0.323488 q -0.04963,-0.303452 -0.623012,-0.303452 -0.277275,0 -0.429605,0.06959 -0.15233,0.06959 -0.15233,0.184809 0,0.104953 0.12152,0.15743 0.123233,0.05248 0.45699,0.101531 0.335469,0.04906 0.532299,0.09697 0.196831,0.04791 0.33718,0.149445 0.14035,0.10039 0.14035,0.270368 0,0.21561 -0.258448,0.358209 -0.256736,0.1426 -0.670937,0.1426 z m 3.174977,-1.502427 h -0.83012 v 1.473907 h -0.33376 v -1.473907 h -0.823265 v -0.198498 h 1.987145 z m 2.44928,1.473907 h -0.35944 l -0.2362,-0.446051 q -0.0633,-0.118642 -0.21052,-0.193935 -0.1472,-0.07529 -0.33889,-0.07529 h -0.61446 v 0.715278 h -0.33205 v -1.672405 h 1.11082 q 0.29097,0 0.47582,0.03764 0.18485,0.03764 0.30124,0.15857 0.11639,0.120925 0.11639,0.272651 0,0.1734 -0.15063,0.289762 -0.15061,0.11636 -0.41248,0.151725 v 0.0046 q 0.26187,0.0559 0.39879,0.302311 z m -1.75951,-0.913777 h 0.74111 q 0.3098,0 0.44844,-0.06503 0.14035,-0.06503 0.14035,-0.224737 0,-0.285199 -0.53744,-0.285199 h -0.79246 z m 3.49676,0.2293 -0.44159,-0.775741 -0.42105,0.775741 z m 0.76337,0.684477 h -0.37484 l -0.29097,-0.508798 h -1.05091 l -0.27728,0.508795 h -0.35087 l 0.96362,-1.672406 h 0.35772 z m 0.27728,-1.672406 h 0.93623 q 0.30809,0 0.51519,0.03879 0.20881,0.03764 0.33033,0.165415 0.12153,0.126629 0.12153,0.284059 0,0.253256 -0.24134,0.384447 -0.24133,0.131192 -0.69832,0.131192 h -0.63158 v 0.668506 h -0.33205 z m 0.33204,0.805402 h 0.635 q 0.32007,0 0.45528,-0.07985 0.13693,-0.07985 0.13693,-0.23044 0,-0.10039 -0.0753,-0.177964 -0.0753,-0.07757 -0.1917,-0.09811 -0.11468,-0.02053 -0.33205,-0.02053 h -0.62815 z m 1.72528,0.867004 z m 2.15831,0.02852 q -0.5306,0 -0.79418,-0.158571 -0.26187,-0.15857 -0.27556,-0.407264 h 0.32006 q 0.0257,0.18709 0.23278,0.277213 0.20881,0.08898 0.5032,0.08898 0.27899,0 0.44844,-0.07643 0.17116,-0.07643 0.17116,-0.207625 0,-0.138036 -0.1763,-0.20078 -0.17629,-0.06274 -0.60761,-0.123206 -0.42961,-0.06161 -0.61788,-0.169979 -0.18656,-0.108375 -0.18656,-0.28862 0,-0.203063 0.24304,-0.333113 0.24476,-0.130051 0.64869,-0.130051 0.42448,0 0.68463,0.131192 0.26017,0.131191 0.27557,0.370758 h -0.32349 q -0.0496,-0.303451 -0.62301,-0.303451 -0.27728,0 -0.42961,0.06959 -0.15233,0.06959 -0.15233,0.184809 0,0.104953 0.12152,0.157429 0.12323,0.05248 0.45699,0.101532 0.33547,0.04906 0.5323,0.09697 0.19683,0.04791 0.33718,0.149444 0.14036,0.100391 0.14036,0.270369 0,0.21561 -0.25846,0.358209 -0.25673,0.1426 -0.67094,0.1426 z m 3.17498,-1.502428 h -0.83011 v 1.473908 h -0.33376 v -1.473901 h -0.82327 v -0.198498 h 1.98714 z m 1.65509,0.789431 -0.44158,-0.775741 -0.42105,0.775741 z m 0.76336,0.684483 h -0.37483 l -0.29097,-0.508795 h -1.0509 l -0.27728,0.508795 h -0.35087 l 0.96361,-1.672405 h 0.35772 z m 2.2473,0 h -0.3406 l -1.31449,-1.3199 v 1.3199 h -0.31493 v -1.672405 h 0.33889 l 1.31449,1.3199 v -1.3199 h 0.31664 z m 0.5614,-1.672405 h 0.79588 q 1.27855,0 1.27855,0.827076 0,0.845329 -1.27855,0.845329 h -0.79588 z m 0.33204,1.473907 h 0.45699 q 0.546,0 0.74454,-0.168838 0.19854,-0.169978 0.19854,-0.477993 0,-0.300029 -0.19854,-0.464304 -0.19683,-0.164274 -0.74454,-0.164274 h -0.45699 z"
       id="text1"
       style="font-size:2.86175px;font-family:'Microsoft Sans Serif';-inkscape-font-specification:'Microsoft Sans Serif, Normal';font-variant-position:super;stroke:#000000;stroke-width:0.167807;stroke-opacity:0"
       aria-label="RUBBER STRAP STAND" />
  </g>
</svg>
